<svg width="24" height="24" viewBox="0 0 24 24" fill="none" xmlns="http://www.w3.org/2000/svg">
<path d="M19.2045 22.8226H4.79535C2.80419 22.8226 1.17749 21.1959 1.17749 19.2048V4.79559C1.17749 2.80444 2.80419 1.17773 4.79535 1.17773H19.2045C21.1957 1.17773 22.8224 2.80444 22.8224 4.79559V19.2048C22.8224 21.2048 21.2046 22.8226 19.2045 22.8226Z" stroke="black"/>
<path d="M8.07543 15.9339C9.12434 16.9828 10.5199 17.5606 12.0044 17.5606C13.4889 17.5606 14.8756 16.9828 15.9334 15.9339C16.9823 14.885 17.5601 13.4894 17.5601 12.0049C17.5601 10.5204 16.9823 9.12483 15.9334 8.07592C14.8845 7.02701 13.4889 6.44922 12.0044 6.44922C10.5199 6.44922 9.12434 7.02701 8.07543 8.07592C7.02652 9.12483 6.44873 10.5204 6.44873 12.0049C6.44873 13.4894 7.02652 14.885 8.07543 15.9339Z" stroke="black"/>
<path d="M18.6429 6.26624C19.232 6.26624 19.7096 5.78866 19.7096 5.19953C19.7096 4.6104 19.232 4.13281 18.6429 4.13281C18.0538 4.13281 17.5762 4.6104 17.5762 5.19953C17.5762 5.78866 18.0538 6.26624 18.6429 6.26624Z" stroke="black"/>
</svg>
