<svg width="26" height="26" viewBox="0 0 26 26" fill="none" xmlns="http://www.w3.org/2000/svg">
<path fill-rule="evenodd" clip-rule="evenodd" d="M25.9511 2.37019L21.6183 23.836C21.226 25.7797 19.4557 26.561 18.201 25.5701C17.1735 24.7587 15.0366 23.1564 10.8441 20.2798C10.0102 19.7076 9.71144 18.2166 10.427 17.2076L12.515 14.2638L9.09094 16.6586C7.98595 17.4315 6.61964 17.8817 5.20914 17.5058C3.2947 16.9956 1.49727 16.0807 0.954714 15.7928C-0.411145 15.068 -0.225089 12.7591 0.965304 12.138L23.9528 0.144544C25.0823 -0.444742 26.2557 0.861299 25.9511 2.37019ZM1.52394 13.8825C1.46356 13.914 1.46128 14.0207 1.52151 14.0527C2.03733 14.3264 3.73341 15.1874 5.51089 15.661C6.49378 15.923 7.5009 15.6218 8.38145 15.006L18.3386 8.04177C18.5576 7.88861 18.7768 8.2431 18.6092 8.47938L11.5216 18.4724C11.4894 18.5178 11.5009 18.5909 11.5432 18.6199C15.7499 21.5063 17.9152 23.1283 18.9778 23.9675C19.4275 24.3226 20.0566 24.0195 20.1886 23.3659L24.5214 1.90003C24.5229 1.89252 24.5171 1.88602 24.5114 1.88895L1.52394 13.8825Z" fill="#111111"/>
</svg>
