<svg width="24" height="26" viewBox="0 0 24 26" fill="none" xmlns="http://www.w3.org/2000/svg">
<path fill-rule="evenodd" clip-rule="evenodd" d="M8.29642 6.63721C8.10991 6.22241 7.72877 5.89356 7.27047 5.92264C5.83487 6.01372 4.94777 7.31718 4.54733 8.69332C4.08697 10.2753 4.61887 11.9519 5.56053 13.3096C6.43949 14.577 7.56196 15.7065 8.82259 16.6203C10.5622 17.8814 12.8523 18.7661 14.7044 17.6727C15.6571 17.1103 16.4821 16.2697 16.6953 15.3524C16.8023 14.8923 16.4638 14.4836 16.0291 14.2882L13.864 13.3149C13.5744 13.1847 13.1958 13.2491 12.9274 13.4178C12.4613 13.7108 11.8436 14.061 11.3467 13.8225C10.1305 13.2387 9.32436 12.4855 8.74217 11.2525C8.50995 10.7607 8.83941 10.1461 9.12969 9.68543C9.30825 9.40208 9.36692 9.0179 9.22975 8.71285L8.29642 6.63721ZM7.19858 7.13363L8.08017 9.0942C7.92718 9.33937 7.72188 9.69298 7.59184 10.0887C7.45593 10.5023 7.34933 11.1241 7.64824 11.7571C8.35816 13.2606 9.37712 14.2036 10.8194 14.8958C11.4791 15.2125 12.1267 15.0901 12.5447 14.9466C12.9273 14.8153 13.2721 14.6132 13.5089 14.4661L15.4312 15.3303C15.2332 15.7502 14.7709 16.2436 14.0854 16.6483C13.4987 16.9947 12.8054 17.0593 12.0028 16.8691C11.1853 16.6753 10.3237 16.2288 9.53655 15.6582C8.38048 14.8201 7.35486 13.7865 6.55625 12.635C5.73385 11.4492 5.38176 10.1425 5.7075 9.02313C6.0441 7.86641 6.61855 7.25429 7.19858 7.13363Z" fill="#F7F3F3"/>
<path d="M14.574 10.6082C14.6772 10.996 14.3544 11.3445 13.9488 11.3445C13.6346 11.3445 13.3679 11.1301 13.2445 10.8446C12.9392 10.1377 12.3708 9.57589 11.6556 9.27418C11.3666 9.15228 11.1497 8.88866 11.1497 8.57812C11.1497 8.17717 11.5023 7.85813 11.8946 7.9601C13.2209 8.30483 14.2256 9.29887 14.574 10.6082Z" fill="#F7F3F3"/>
<path d="M16.8102 11.4753C17.2401 11.4753 17.5735 11.0989 17.4707 10.6863C16.8193 8.07288 14.7244 6.00234 12.0804 5.35857C11.6629 5.25693 11.2821 5.58652 11.2821 6.01146C11.2821 6.34991 11.5282 6.63581 11.8579 6.72728C13.8956 7.29264 15.5139 8.8921 16.0859 10.9062C16.1785 11.232 16.4677 11.4753 16.8102 11.4753Z" fill="#F7F3F3"/>
<path d="M20.1385 10.9092C20.1516 11.2824 19.8373 11.5765 19.4595 11.5765C19.0539 11.5765 18.7349 11.2391 18.7139 10.8388C18.5319 7.36927 15.641 4.51195 12.1309 4.33196C11.7258 4.31119 11.3845 3.99593 11.3845 3.59504C11.3845 3.22158 11.682 2.91098 12.0596 2.92389C16.399 3.07223 19.9885 6.62015 20.1385 10.9092Z" fill="#F7F3F3"/>
<path fill-rule="evenodd" clip-rule="evenodd" d="M17.8335 21.2655C20.9976 20.6912 23.3684 18.1316 23.7541 14.9748C23.9153 13.6555 24 12.2893 24 10.8898C24 9.49026 23.9153 8.12401 23.7541 6.80473C23.3684 3.64801 20.9976 1.08834 17.8335 0.514047C15.9942 0.1802 14.0341 0 12 0C9.96588 0 8.0058 0.180199 6.16647 0.514046C3.00241 1.08834 0.631647 3.64801 0.245897 6.80473C0.0846817 8.12401 0 9.49026 0 10.8898C0 12.2893 0.0846817 13.6555 0.245897 14.9748C0.575497 17.6721 2.35428 19.9334 4.83888 20.8928C5.12895 21.0048 5.33332 21.2734 5.33332 21.5812V25.2967C5.33332 25.9559 6.16952 26.2515 6.59248 25.7419L9.70241 21.9944C9.84704 21.8201 10.0675 21.7256 10.2953 21.737C10.8569 21.7652 11.4255 21.7796 12 21.7796C14.0341 21.7796 15.9942 21.5994 17.8335 21.2655ZM17.577 19.8848C20.1118 19.4248 22.0307 17.371 22.3441 14.8065C22.4984 13.5435 22.5798 12.2335 22.5798 10.8898C22.5798 9.54609 22.4984 8.23605 22.3441 6.97306C22.0307 4.40856 20.1118 2.35481 17.577 1.89473C15.824 1.57655 13.9499 1.40377 12 1.40377C10.0501 1.40377 8.17597 1.57655 6.42299 1.89473C3.88819 2.35481 1.96927 4.40856 1.65589 6.97306C1.50155 8.23605 1.42024 9.54609 1.42024 10.8898C1.42024 12.2335 1.50155 13.5435 1.65589 14.8065C1.92358 16.9971 3.36475 18.8165 5.35569 19.5853C6.13408 19.8859 6.75355 20.6376 6.75355 21.5812V23.3343L8.60432 21.1042C9.04008 20.5791 9.69788 20.3015 10.3672 20.3351C10.9049 20.362 11.4495 20.3758 12 20.3758C13.9499 20.3758 15.824 20.203 17.577 19.8848Z" fill="#F7F3F3"/>
</svg>
