<svg width="26" height="26" viewBox="0 0 26 26" fill="none" xmlns="http://www.w3.org/2000/svg">
<path d="M24.0358 7.94331C23.4306 6.60591 22.5618 5.40517 21.4587 4.37039C20.3556 3.34537 19.0767 2.53512 17.6515 1.96892C16.1774 1.38319 14.6154 1.09033 13.0047 1.09033C11.394 1.09033 9.83201 1.38319 8.35794 1.96892C6.93268 2.53512 5.65385 3.33561 4.55073 4.37039C3.44762 5.40517 2.5788 6.60591 1.97355 7.94331C1.34878 9.32953 1.02661 10.8134 1.02661 12.3362C1.02661 15.0013 2.02233 17.559 3.84784 19.5895L2.87163 24.9098L8.06508 22.5962C9.61725 23.26 11.267 23.5919 12.9949 23.5919C14.6057 23.5919 16.1676 23.2991 17.6417 22.7133C19.0669 22.1471 20.3458 21.3466 21.4489 20.3119C22.552 19.2771 23.4208 18.0763 24.0261 16.7389C24.6508 15.3527 24.973 13.8689 24.973 12.346C24.9828 10.8134 24.6606 9.33929 24.0358 7.94331Z" stroke="black"/>
<path d="M17.8658 14.5814C17.3582 14.3276 16.9872 14.1714 16.7237 14.0738C16.5577 14.0152 16.1672 13.8395 16.0305 13.9469C15.601 14.2983 15.1422 15.294 14.6541 15.4795C13.4436 15.2452 12.3209 14.4154 11.4424 13.5661C11.0519 13.1952 10.3295 12.1409 10.1733 11.8578C10.144 11.5649 10.6711 11.1744 10.7883 10.9499C11.3935 10.2666 10.9347 9.83702 10.8566 9.55392C10.72 9.26106 10.4857 8.73391 10.2807 8.30438C10.105 8.02128 10.0659 7.60151 9.75349 7.44531C8.42585 6.76197 7.66445 8.12866 7.35206 8.84129C5.46798 13.3807 16.792 22.0201 19.0958 16.0652C19.213 15.5478 19.1641 15.3526 18.9884 15.1183C18.637 14.8743 18.227 14.7669 17.8658 14.5814Z" stroke="black"/>
</svg>
